<svg width="422" height="365" viewBox="0 0 422 365" fill="none" xmlns="http://www.w3.org/2000/svg">
<path d="M373.417 240.488C372.723 261.498 372.326 282.517 372.226 303.538L372.086 323.71C372.055 327.041 372.164 331.893 371.596 335.142C370.656 340.514 362.598 347.443 357.274 347.898C353.461 348.223 348.509 348.056 344.656 348.056L320.837 348.034L242.582 348.038L120.113 348.042L79.6531 348.058C69.6481 348.058 59.9521 347.925 49.852 347.637C39.7896 347.349 32.5619 341.269 31.2014 331.062C30.6906 327.228 30.7714 322.978 30.6895 319.072C30.5604 312.602 30.475 306.131 30.4332 299.658L30.3676 244.346L30.6307 163.477C30.6949 147.423 30.4871 131.507 31.2252 115.449C31.844 101.99 38.6037 95.6705 52.0468 95.2223C61.9767 94.9094 71.9395 94.9777 81.8699 95.2843C82.4477 95.3022 84.9658 95.4579 84.8441 96.2739C84.2053 100.556 83.0342 104.789 82.0863 109.021C81.5675 111.338 81.0283 113.851 80.3873 116.126L80.0405 116.179C74.7981 116.968 68.4064 116.128 62.976 116.57C57.7617 116.994 54.0654 115.94 54.3075 122.919C53.7324 143.213 53.8282 163.485 53.7994 183.777C53.6663 211.984 53.6762 240.19 53.8291 268.396C53.907 279.643 53.854 290.883 54.0467 302.129C54.1181 306.293 54.1457 310.952 54.6597 315.104C54.807 316.293 56.1816 318.021 57.2241 318.659C58.5197 319.453 60.9027 319.529 62.4523 319.507C66.8245 319.439 71.1731 319.393 75.5516 319.391L115.75 319.375L256.772 319.369C280.011 319.498 303.252 319.43 326.49 319.165C332.647 319.04 339.133 319.163 345.209 318.241C347.507 317.891 348.491 315.252 348.659 313.221C349.445 303.793 348.933 294.261 349.097 284.809C349.126 283.091 349.182 273.283 348.92 272.057C357.643 267.304 365.46 257.747 369.811 248.961C371.055 246.447 372.03 242.649 373.417 240.488Z" fill="#136D65"/>
<path d="M201.501 324.739C210.507 324.868 212.165 338.927 202.232 340.814C200.367 340.697 199.112 340.454 197.522 339.267C195.841 337.999 194.735 336.112 194.45 334.026C193.745 329.168 196.638 325.411 201.501 324.739Z" fill="white"/>
<path d="M69.0995 47.7879C72.0333 46.6388 77.5209 45.2257 80.642 44.3471C87.7288 42.3489 94.8275 40.3934 101.938 38.4808C126.06 31.9124 150.23 25.5194 174.445 19.3021L192.973 14.4389C194.436 14.0525 201.255 12.0927 202.226 12.1853C203.816 12.3369 209.25 13.8886 211.11 14.3925C216.662 15.9071 222.222 17.3906 227.789 18.8431L304.423 39.1324C313.114 41.4504 322.828 44.5237 331.349 46.5869C332.677 46.9723 334.119 47.3752 335.424 47.8239C330.89 49.5538 322.34 51.5369 317.401 52.8687C304.845 56.2572 292.261 59.5463 279.651 62.7358L256.936 68.5474C253.879 69.333 248.294 70.9683 245.31 71.4417C243.413 72.2334 203.297 82.1526 201.846 82.1497C199.468 82.145 196.416 80.9179 194.075 80.2961L179.868 76.5548L142.169 66.8545C135.809 65.1888 128.064 63.3422 121.92 61.2772C124.661 60.3312 128.911 59.5022 131.805 58.922C137.233 57.8478 142.672 56.8308 148.12 55.8714C162.085 53.3065 176.027 50.6612 190.033 48.351C194.702 47.0139 199.223 49.052 203.728 48.608C212.042 47.7885 213.84 39.7243 204.747 37.7609C202.96 37.3576 201.108 37.3395 199.314 37.7076C195.703 38.4553 192.995 40.8897 189.332 41.6197C184.282 42.626 179.205 43.6042 174.154 44.5992L132.362 52.7288C127.221 53.7779 111.376 56.6565 107.549 59.1091C106.372 58.4782 102.272 57.2915 100.446 56.5312C98.5015 55.7761 94.5055 54.8768 92.3614 54.3196L79.3789 50.8163C76.1066 49.9369 72.2086 48.9961 69.0995 47.7879Z" fill="#47C6AA"/>
<path d="M245.31 71.4421C246.18 70.5016 247.683 70.7758 248.15 70.3405L247.797 69.8294C249.985 69.0523 252.933 68.3402 255.221 67.7112C258.726 66.7353 262.223 65.7308 265.712 64.6974C281.692 59.8847 297.778 55.4409 313.962 51.3695C318.701 50.1383 323.396 48.6224 328.127 47.3539C329.18 47.0716 330.267 46.7165 331.349 46.5873C332.677 46.9726 334.12 47.3755 335.424 47.8242C330.89 49.5542 322.34 51.5372 317.401 52.869C304.845 56.2575 292.261 59.5466 279.651 62.7362L256.936 68.5478C253.879 69.3333 248.294 70.9686 245.31 71.4421Z" fill="#1A9C85"/>
<path d="M128.083 70.6601L129.354 69.2568C142.392 72.7449 155.596 75.8702 168.703 79.3474L189.283 84.8893C200.925 88.0206 200.87 88.5938 212.807 85.5312C220.453 83.5696 228.283 81.5356 236.003 79.4153C248.461 75.9937 261.454 73.0348 274.035 70.1455C276.111 69.7171 275.444 91.486 274.749 94.7001C276.024 95.9167 281.062 95.5064 283.049 95.5017C287.283 95.5087 291.517 95.4784 295.748 95.4107C307.737 95.1251 319.858 95.6866 331.867 95.4677C334.924 95.4119 338.104 95.5366 341.153 95.8053C337.203 101.934 332.628 107.753 328.339 113.647C327.677 114.557 326.915 115.628 326.171 116.451L187.161 116.44H143.887C134.862 116.439 124.864 116.749 115.988 115.969C115.045 113.206 110.692 98.0778 110.832 96.1854C112.44 94.4198 125.05 95.6228 128.174 94.9793C127.987 89.666 128.14 84.1276 128.09 78.7962C128.065 76.0019 128.282 73.5093 128.083 70.6601Z" fill="#136D65"/>
<path d="M128.083 70.6601L129.354 69.2568C142.392 72.7449 155.596 75.8702 168.703 79.3474L189.283 84.8893C200.925 88.0206 200.87 88.5938 212.807 85.5312C220.453 83.5696 228.283 81.5356 236.003 79.4153C248.461 75.9937 261.454 73.0348 274.035 70.1455C276.111 69.7171 275.444 91.486 274.749 94.7001C272.795 95.6047 245.488 95.0334 240.296 95.0293L164.812 95.0202L139.74 95.0161C136.146 95.0151 131.695 94.8749 128.174 94.9793C127.987 89.666 128.14 84.1276 128.09 78.7962C128.065 76.0019 128.282 73.5093 128.083 70.6601Z" fill="#47C6AA"/>
<path d="M398.086 53.2811L398.54 53.626C398.855 54.6088 390.826 112.104 390.133 117.652C386.755 115.515 378.241 107.176 375.338 106.33C373.598 106.558 367.76 114.368 366.219 116.24C353.613 131.539 340.916 146.467 326.514 160.121C294.193 191.131 256.29 215.737 214.811 232.637C172.208 250.169 132.235 258.483 85.9516 257.251L85.7385 257.094L85.5459 257.175L85.5531 257.156C85.8056 257.041 86.8267 256.909 87.1647 256.858C112.598 254.337 137.701 249.185 162.07 241.48C176.038 236.888 189.684 231.367 202.917 224.958C220.832 216.558 237.984 206.62 254.182 195.258C281.295 176.121 309.372 148.195 329.781 122.106C335.134 115.233 340.316 108.229 345.318 101.099C347.713 97.6646 350.706 93.5396 352.584 89.8758C349.756 86.8836 341.574 81.882 337.783 78.5873C339.653 77.4641 342.683 76.3125 344.767 75.4542L355.616 70.9799C369.652 65.1212 384.151 59.2763 398.086 53.2811Z" fill="#47C6AA"/>
<path d="M74.9757 124.575C86.2756 124.761 97.641 124.464 108.94 124.652C111.225 124.69 116.453 124.405 118.397 124.724C119.943 124.975 121.386 125.662 122.555 126.704C124.086 128.082 124.994 130.021 125.075 132.079C125.514 144.85 124.828 157.917 125.118 170.705C125.258 176.857 124.566 182.139 116.936 182.325L88.1256 182.359C84.5569 182.36 80.6227 182.317 77.0933 182.372C66.0539 182.546 66.6046 176.802 66.6032 168.277L66.6116 154.579L66.6155 140.034C66.619 132.774 65.3204 125.41 74.9757 124.575Z" fill="#81DBC8"/>
<path d="M145.035 124.572L175.092 124.62C178.123 124.613 181.158 124.578 184.189 124.587C187.427 124.596 190.144 124.27 192.746 126.617C194.254 127.972 195.158 129.875 195.255 131.9C195.399 134.849 195.295 138.509 195.294 141.521L195.306 158.471L195.309 169.21C195.308 172.58 195.899 177.307 193.351 179.849C191.534 181.663 189.835 182.253 187.297 182.328L158.329 182.35C154.158 182.355 143.224 183.154 140.043 180.738C138.375 179.469 137.281 177.587 137.002 175.509C136.753 173.534 136.842 169.785 136.84 167.688L136.841 154.21L136.841 140.69C136.835 133.589 135.626 125.492 145.035 124.572Z" fill="#81DBC8"/>
<path d="M215.004 124.568C228.871 124.76 242.781 124.508 256.657 124.594C261.009 124.622 264.953 126.915 265.35 131.623C265.568 134.211 265.401 137.274 265.401 139.909L265.397 155.647L265.395 167.865C265.403 174.686 266.518 182.241 257.068 182.435C242.977 182.276 228.816 182.541 214.724 182.338C213.179 182.177 211.443 181.767 210.213 180.853C205.981 177.705 207.031 171.631 207.039 166.772L207.061 150.35L207.082 138.853C207.088 132.198 206.391 125.583 215.004 124.568Z" fill="#81DBC8"/>
<path d="M215.199 256.858L244.814 256.92C249.315 256.92 254.274 256.751 258.753 257.07C260.133 257.253 261.577 258.06 262.62 258.924C266.348 262.012 265.408 268.016 265.41 272.538L265.414 288.225L265.408 300.576C265.406 304.082 266.027 308.977 263.532 311.693C261.806 313.567 260.061 314.252 257.574 314.392L228.972 314.402C225.234 314.404 221.498 314.404 217.763 314.406C215.354 314.406 212.322 314.33 210.291 312.847C206.296 309.927 206.967 304.802 206.965 300.444L206.967 288.295L206.975 273.493C206.973 266.232 205.58 257.953 215.199 256.858Z" fill="#47C6AA"/>
<path d="M158.353 257.07C161.463 256.891 165.61 257.016 168.787 257.023C174.197 257.041 179.607 257.025 185.017 256.971C188.511 256.959 190.498 256.829 193.142 259.461C195.95 262.253 195.207 265.646 195.303 269.223C195.364 271.507 195.3 273.789 195.301 276.05L195.306 304.629C195.297 307.892 195.364 309.919 192.838 312.338C190.192 314.871 186.351 314.406 183.006 314.427C179.943 314.445 176.953 314.404 173.929 314.392L154.448 314.408C150.296 314.416 143.118 315.176 139.818 312.569C135.878 309.456 136.822 302.728 136.82 298.1L136.823 281.926L136.808 270.89C136.804 266.497 136.233 263.609 139.183 260.024C140.116 259.868 141.324 259.724 142.283 259.634C147.607 259.127 153.065 257.481 158.353 257.07Z" fill="#47C6AA"/>
<path d="M73.8117 190.562C75.213 190.443 77.947 190.541 79.4921 190.542L90.9027 190.542C99.5969 190.541 108.345 190.524 117.044 190.56C119.447 190.515 121.44 191.506 123.058 193.23C125.649 195.994 125.16 200.084 125.137 203.594L125.095 213.041C125.103 222.506 125.422 233.585 125.058 242.904C122.502 244.268 120.535 244.062 117.71 244.093C105.722 244.447 93.4471 243.864 81.5173 244.142C76.6843 244.255 67.3721 245.07 66.8142 238.593C66.3687 233.423 66.6153 226.719 66.6198 221.464L66.6351 206.603C66.6439 199.689 65.1735 192.384 73.8117 190.562Z" fill="#81DBC8"/>
<path d="M123.252 262.208C123.799 262.113 123.915 262.14 124.459 262.169C125.672 263.296 125.086 267.989 125.081 269.732L125.102 286.641C125.105 293.286 125.154 300.029 125.083 306.672C125.026 307.876 124.857 308.917 124.321 310.006C121.593 315.548 115.274 314.421 110.183 314.409L95.7628 314.38L81.8304 314.419C77.9142 314.429 73.6005 314.997 70.1472 313.03C70.0418 312.958 69.938 312.882 69.8359 312.806C65.9868 309.876 66.5526 305.08 66.5857 300.809L66.6468 290.663L66.6163 275.361C66.6149 272.526 66.5978 269.763 66.7237 266.93C66.9405 262.058 71.2202 263.119 74.8125 263.134L84.8249 263.169C96.4242 263.181 111.763 263.304 123.252 262.208Z" fill="#47C6AA"/>
<path d="M325.066 169.297C326.646 169.66 328.222 170.037 329.793 170.428C337.195 171.916 342.724 174.045 349.176 177.98C359.223 185.146 368.537 195.403 372.742 207.167L372.919 207.196L373.036 206.838C373.608 210.408 374.61 214.013 374.789 217.58C375.106 223.952 375.254 230.337 374.013 236.62C373.84 237.503 373.653 239.738 373.417 240.488C372.03 242.649 371.055 246.447 369.811 248.961C365.46 257.747 357.643 267.304 348.92 272.057C348.188 272.16 345.386 273.727 344.568 274.118C332.196 280.036 316.963 280.733 304.077 276.641C290.058 272.17 278.386 262.321 271.616 249.253C266.825 240.044 264.72 229.67 265.545 219.321C265.659 218.062 266.13 212.891 267.101 212.325C271.159 209.97 275.236 207.287 279.425 205.179C278.61 208.13 277.824 211.153 277.135 214.132C273.593 229.458 278.958 246.603 290.739 257.037C299.924 265.292 312.055 269.483 324.377 268.656C336.284 267.837 347.386 262.349 355.267 253.387C362.806 244.651 366.922 232.09 366.06 220.599C365.079 208.552 359.336 197.394 350.103 189.594C340.748 181.532 330.511 178.314 318.276 179.218C316.667 179.191 315.801 179.317 314.186 179.541C315.307 178.164 315.887 177.582 317.204 176.383C319.146 174.532 321.112 172.705 323.102 170.905L325.066 169.297Z" fill="#3BAF95"/>
<path d="M314.186 179.541C315.307 178.165 315.887 177.582 317.204 176.384C317.918 177.331 318.125 178.033 318.276 179.218C316.667 179.191 315.801 179.318 314.186 179.541Z" fill="#1A9C85"/>
<path d="M325.066 169.297C326.646 169.66 328.222 170.037 329.793 170.428C328.792 171.011 324.196 171.114 323.102 170.905L325.066 169.297Z" fill="#136D65"/>
<path d="M144.187 190.576C144.308 190.568 144.43 190.561 144.552 190.553C159.364 190.649 174.345 190.265 189.128 190.712C191.642 191.143 194.626 193.893 194.999 196.245C195.507 199.459 195.308 202.666 195.306 205.824L195.291 221.749C188.889 224.813 182.363 227.609 175.729 230.131C162.859 235.189 150.19 238.831 136.861 242.33C136.608 233.569 136.973 224.315 136.826 215.492C136.916 209.838 136.634 204.131 136.928 198.486C137.162 193.994 140.12 191.491 144.187 190.576Z" fill="#81DBC8"/>
<path d="M277.09 263.098C277.664 263.561 278.491 264.462 279.044 265.012C282.831 268.764 286.917 271.74 291.582 274.361C304.985 282.019 320.907 283.955 335.753 279.735C335.833 285.864 335.854 291.996 335.81 298.125C335.804 301.639 336.319 307.857 334.669 310.768C334.325 311.25 333.943 311.704 333.529 312.128C331.686 314.005 329.688 314.393 327.099 314.373C312.512 314.254 297.78 314.692 283.226 314.157C280.56 314.058 277.431 310.106 277.275 307.678C277.006 303.52 277.166 298.672 277.164 294.537C277.201 284.056 277.176 273.577 277.09 263.098Z" fill="#81DBC8"/>
<path d="M349.536 144.857C350.727 142.99 357.159 136.101 359.052 133.913L367.605 123.827C368.852 122.353 370.761 119.963 372.061 118.654C372.135 120.738 372.226 122.839 372.261 124.924C372.73 152.164 371.917 179.617 373.036 206.838L372.919 207.196L372.742 207.167C368.537 195.403 359.223 185.146 349.176 177.98C349.774 175.965 349.482 170.094 349.536 167.602C349.696 160.177 349.295 152.245 349.536 144.857Z" fill="#136D65"/>
<path d="M262.057 215.449C262.429 215.848 261.744 220.374 261.703 221.323C261.359 229.174 263.056 236.077 265.554 243.386C264.107 246.624 262.431 248.873 258.547 248.955C251.08 249.114 243.598 249.005 236.127 249.009L222.34 249.021C219.375 249.023 214.724 249.33 212.038 248.398C211.739 248.254 211.449 248.095 211.167 247.924C208.596 246.336 207.784 244.377 207.111 241.633C208.547 240.845 212.445 239.548 214.181 238.876C217.983 237.374 221.753 235.793 225.491 234.135C237.99 228.532 250.193 222.294 262.057 215.449Z" fill="#47C6AA"/>
<path d="M284.407 124.72C286.012 124.589 287.781 124.656 289.389 124.719C299.402 125.113 309.438 124.662 319.448 124.705C317.772 127.066 314.743 130.431 312.775 132.692C307.132 139.133 301.304 145.409 295.298 151.511C289.334 157.939 283.395 163.17 277.18 169.151C277.104 160.949 277.071 152.748 277.084 144.546C277.082 141.877 277.067 139.169 277.082 136.523C277.1 133.328 276.86 129.899 279.201 127.394C280.754 125.73 282.282 125.137 284.407 124.72Z" fill="#81DBC8"/>
<path d="M214.148 190.555C217.588 190.372 222.556 190.531 226.176 190.532L249.689 190.562C244.97 194.469 235.088 200.636 229.69 203.936C225.504 206.525 221.251 209.005 216.936 211.373C213.663 213.134 210.287 214.747 207.055 216.572L206.996 204.877C206.969 198.552 206.292 192.3 214.148 190.555Z" fill="#81DBC8"/>
<path d="M349.579 201.208C353.5 201.043 355.201 205.457 352.778 207.289C345.16 213.054 336.543 217.834 328.798 223.411C328.483 225.572 328.142 227.191 326.601 228.886C325.274 230.345 323.41 231.199 321.437 231.253C319.308 231.32 317.243 230.508 315.731 229.004C313.83 227.107 313.505 225.193 313.495 222.675C310.794 219.819 306.626 216.126 303.691 213.391C301.751 211.636 297.06 207.898 296.604 205.54C296.192 203.405 299.286 200.762 301.907 202.77C304.114 204.462 306.032 206.159 308.103 207.947C311.495 210.885 314.933 213.772 318.411 216.607C321.273 215.659 322.394 216.109 325.155 217.07C330.435 213.675 335.683 210.229 340.898 206.733C343.255 205.167 347.203 202.385 349.579 201.208Z" fill="#1A9C85"/>
<path d="M93.3517 89.6534C96.5779 90.5168 99.1686 90.2557 102.452 89.9709C102.74 89.946 102.955 90.0954 103.103 90.3098C104.764 98.891 107.535 109.494 109.667 118.016C104.632 122.907 91.7496 122.632 86.5009 118.248C86.9123 115.903 87.8312 112.398 88.378 110.003C89.8842 103.184 91.5425 96.3989 93.3517 89.6534Z" fill="#136D65"/>
<path d="M100.446 56.5319C102.272 57.2921 106.372 58.4789 107.549 59.1097C103.064 63.086 101.496 67.8376 101.602 73.7825C104.105 75.7509 106.219 77.5724 106.646 80.9883C106.938 83.4495 106.238 85.9257 104.701 87.8696C104.073 88.6745 103.35 89.3673 103.103 90.3104C102.955 90.096 102.74 89.9466 102.452 89.9715C99.1686 90.2563 96.5779 90.5174 93.3517 89.6541C87.4967 84.1914 87.7896 77.4673 95.1593 73.6309C95.3018 69.1585 96.0175 65.112 98.0684 61.1147C98.8273 59.6356 99.8513 58.0351 100.446 56.5319Z" fill="#19AA8E"/>
<path d="M283.319 221.224C288.593 220.827 291.068 225.094 284.96 226.29C279.441 226.608 276.87 222.424 283.319 221.224Z" fill="#1A9C85"/>
<path d="M356.91 221.234C362.072 221.057 364.209 225.191 358.299 226.31C352.671 226.398 350.7 222.339 356.91 221.234Z" fill="#1A9C85"/>
<path d="M320.287 183.274C320.411 183.27 320.536 183.268 320.662 183.269C324.289 183.315 323.974 190.05 321.353 192.233C317.251 192.113 317.675 185.614 320.287 183.274Z" fill="#1A9C85"/>
<path d="M320.477 256.3C324.272 256.348 323.91 263.218 321.147 265.321C317.556 264.779 317.759 258.436 320.477 256.3Z" fill="#1A9C85"/>
<path d="M335.734 159.616C336.356 160.486 336.119 165.133 336.113 166.492L332.034 165.449L330.096 164.971L335.734 159.616Z" fill="#81DBC8"/>
</svg>
